<mxfile host="app.diagrams.net" modified="2022-10-25T07:02:41.771Z" agent="5.0 (Windows NT 10.0; Win64; x64) AppleWebKit/537.36 (KHTML, like Gecko) Chrome/106.0.0.0 Safari/537.36" etag="k5UEnw8wbTmmseVzERYP" version="20.5.1" type="github">
  <diagram id="prtHgNgQTEPvFCAcTncT" name="Page-1">
    <mxGraphModel dx="1422" dy="804" grid="1" gridSize="10" guides="1" tooltips="1" connect="1" arrows="1" fold="1" page="1" pageScale="1" pageWidth="827" pageHeight="1169" math="0" shadow="0">
      <root>
        <mxCell id="0" />
        <mxCell id="1" parent="0" />
        <mxCell id="6KCu21m0NfsH39WnxG2K-9" value="google tools" style="swimlane;fillColor=none;swimlaneFillColor=none;" vertex="1" parent="1">
          <mxGeometry x="70" y="50" width="200" height="840" as="geometry" />
        </mxCell>
        <mxCell id="6KCu21m0NfsH39WnxG2K-14" value="user" style="shape=umlActor;verticalLabelPosition=bottom;verticalAlign=top;html=1;outlineConnect=0;" vertex="1" parent="6KCu21m0NfsH39WnxG2K-9">
          <mxGeometry x="87.5" y="30" width="25" height="50" as="geometry" />
        </mxCell>
        <mxCell id="6KCu21m0NfsH39WnxG2K-18" value="google form&lt;br&gt;善行提交表單" style="shape=note;whiteSpace=wrap;html=1;backgroundOutline=1;darkOpacity=0.05;" vertex="1" parent="6KCu21m0NfsH39WnxG2K-9">
          <mxGeometry x="60" y="150" width="80" height="90" as="geometry" />
        </mxCell>
        <mxCell id="6KCu21m0NfsH39WnxG2K-17" value="編輯" style="text;html=1;strokeColor=none;fillColor=none;align=center;verticalAlign=middle;whiteSpace=wrap;rounded=0;" vertex="1" parent="6KCu21m0NfsH39WnxG2K-9">
          <mxGeometry x="100" y="110" width="60" height="30" as="geometry" />
        </mxCell>
        <mxCell id="6KCu21m0NfsH39WnxG2K-20" value="" style="endArrow=classic;html=1;rounded=0;exitX=0.5;exitY=1;exitDx=0;exitDy=0;exitPerimeter=0;" edge="1" parent="6KCu21m0NfsH39WnxG2K-9" source="6KCu21m0NfsH39WnxG2K-18">
          <mxGeometry width="50" height="50" relative="1" as="geometry">
            <mxPoint x="70" y="250" as="sourcePoint" />
            <mxPoint x="100" y="280" as="targetPoint" />
          </mxGeometry>
        </mxCell>
        <mxCell id="6KCu21m0NfsH39WnxG2K-75" style="edgeStyle=orthogonalEdgeStyle;rounded=0;orthogonalLoop=1;jettySize=auto;html=1;exitX=0.5;exitY=1;exitDx=0;exitDy=0;exitPerimeter=0;dashed=1;fontSize=7;" edge="1" parent="6KCu21m0NfsH39WnxG2K-9" source="6KCu21m0NfsH39WnxG2K-21" target="6KCu21m0NfsH39WnxG2K-23">
          <mxGeometry relative="1" as="geometry" />
        </mxCell>
        <mxCell id="6KCu21m0NfsH39WnxG2K-21" value="google sheet&lt;br&gt;表單回覆" style="shape=note;whiteSpace=wrap;html=1;backgroundOutline=1;darkOpacity=0.05;" vertex="1" parent="6KCu21m0NfsH39WnxG2K-9">
          <mxGeometry x="60" y="280" width="80" height="90" as="geometry" />
        </mxCell>
        <mxCell id="6KCu21m0NfsH39WnxG2K-22" value="提交" style="text;html=1;strokeColor=none;fillColor=none;align=center;verticalAlign=middle;whiteSpace=wrap;rounded=0;" vertex="1" parent="6KCu21m0NfsH39WnxG2K-9">
          <mxGeometry x="100" y="240" width="60" height="30" as="geometry" />
        </mxCell>
        <mxCell id="6KCu21m0NfsH39WnxG2K-76" style="edgeStyle=orthogonalEdgeStyle;rounded=0;orthogonalLoop=1;jettySize=auto;html=1;exitX=0.25;exitY=0;exitDx=0;exitDy=0;entryX=0.177;entryY=1;entryDx=0;entryDy=0;entryPerimeter=0;dashed=1;fontSize=7;" edge="1" parent="6KCu21m0NfsH39WnxG2K-9" source="6KCu21m0NfsH39WnxG2K-23" target="6KCu21m0NfsH39WnxG2K-21">
          <mxGeometry relative="1" as="geometry" />
        </mxCell>
        <mxCell id="6KCu21m0NfsH39WnxG2K-23" value="google apps script" style="swimlane;swimlaneFillColor=#FCFCFC;" vertex="1" parent="6KCu21m0NfsH39WnxG2K-9">
          <mxGeometry x="10" y="400" width="180" height="290" as="geometry" />
        </mxCell>
        <mxCell id="6KCu21m0NfsH39WnxG2K-67" value="doGet()" style="swimlane;fontSize=10;" vertex="1" parent="6KCu21m0NfsH39WnxG2K-9">
          <mxGeometry x="30" y="440" width="145" height="240" as="geometry" />
        </mxCell>
        <mxCell id="6KCu21m0NfsH39WnxG2K-96" style="edgeStyle=orthogonalEdgeStyle;rounded=0;orthogonalLoop=1;jettySize=auto;html=1;exitX=0.5;exitY=1;exitDx=0;exitDy=0;entryX=0.5;entryY=0;entryDx=0;entryDy=0;entryPerimeter=0;dashed=1;labelBackgroundColor=#99FFFF;labelBorderColor=#99FFFF;fontSize=7;" edge="1" parent="6KCu21m0NfsH39WnxG2K-67" source="6KCu21m0NfsH39WnxG2K-69" target="6KCu21m0NfsH39WnxG2K-94">
          <mxGeometry relative="1" as="geometry" />
        </mxCell>
        <mxCell id="6KCu21m0NfsH39WnxG2K-69" value="&lt;span style=&quot;color: rgb(0, 0, 0); font-family: Helvetica; font-size: 12px; font-style: normal; font-variant-ligatures: normal; font-variant-caps: normal; font-weight: 400; letter-spacing: normal; orphans: 2; text-align: center; text-indent: 0px; text-transform: none; widows: 2; word-spacing: 0px; -webkit-text-stroke-width: 0px; text-decoration-thickness: initial; text-decoration-style: initial; text-decoration-color: initial; float: none; display: inline !important;&quot;&gt;getSheetValue&lt;/span&gt;" style="rounded=0;whiteSpace=wrap;html=1;fontSize=7;labelBackgroundColor=default;" vertex="1" parent="6KCu21m0NfsH39WnxG2K-67">
          <mxGeometry x="10" y="40" width="110" height="20" as="geometry" />
        </mxCell>
        <mxCell id="6KCu21m0NfsH39WnxG2K-70" style="edgeStyle=orthogonalEdgeStyle;rounded=0;orthogonalLoop=1;jettySize=auto;html=1;exitX=0.5;exitY=1;exitDx=0;exitDy=0;entryX=0.5;entryY=0;entryDx=0;entryDy=0;dashed=1;fontSize=7;" edge="1" parent="6KCu21m0NfsH39WnxG2K-67" source="6KCu21m0NfsH39WnxG2K-71" target="6KCu21m0NfsH39WnxG2K-72">
          <mxGeometry relative="1" as="geometry" />
        </mxCell>
        <mxCell id="6KCu21m0NfsH39WnxG2K-71" value="&lt;div style=&quot;color: rgb(60, 64, 67); background-color: rgb(255, 255, 254); font-family: &amp;quot;Roboto Mono&amp;quot;, Consolas, &amp;quot;Courier New&amp;quot;, monospace; font-size: 13px; line-height: 18px;&quot;&gt;&lt;span style=&quot;color: #202124;&quot;&gt;data&lt;/span&gt;.&lt;span style=&quot;color: #202124;&quot;&gt;push&lt;/span&gt;&lt;/div&gt;" style="rounded=0;whiteSpace=wrap;html=1;fontSize=7;" vertex="1" parent="6KCu21m0NfsH39WnxG2K-67">
          <mxGeometry x="30" y="150" width="70" height="30" as="geometry" />
        </mxCell>
        <mxCell id="6KCu21m0NfsH39WnxG2K-72" value="&lt;div style=&quot;color: rgb(60, 64, 67); background-color: rgb(255, 255, 254); font-family: &amp;quot;Roboto Mono&amp;quot;, Consolas, &amp;quot;Courier New&amp;quot;, monospace; font-size: 7px; line-height: 18px;&quot;&gt;&lt;span style=&quot;color: rgb(201, 39, 134); font-size: 7px;&quot;&gt;ContentService&lt;/span&gt;.&lt;span style=&quot;color: rgb(32, 33, 36); font-size: 7px;&quot;&gt;createTextOutput&lt;/span&gt;&lt;/div&gt;" style="rounded=0;whiteSpace=wrap;html=1;fontSize=4;align=center;" vertex="1" parent="6KCu21m0NfsH39WnxG2K-67">
          <mxGeometry x="5" y="200" width="120" height="30" as="geometry" />
        </mxCell>
        <mxCell id="6KCu21m0NfsH39WnxG2K-89" value="" style="endArrow=classic;html=1;rounded=0;dashed=1;labelBackgroundColor=#99FFFF;labelBorderColor=#99FFFF;fontSize=7;" edge="1" parent="6KCu21m0NfsH39WnxG2K-67">
          <mxGeometry width="50" height="50" relative="1" as="geometry">
            <mxPoint x="42" y="40" as="sourcePoint" />
            <mxPoint x="43" y="20" as="targetPoint" />
          </mxGeometry>
        </mxCell>
        <mxCell id="6KCu21m0NfsH39WnxG2K-95" style="edgeStyle=orthogonalEdgeStyle;rounded=0;orthogonalLoop=1;jettySize=auto;html=1;exitX=0.5;exitY=1;exitDx=0;exitDy=0;exitPerimeter=0;entryX=0.5;entryY=0;entryDx=0;entryDy=0;dashed=1;labelBackgroundColor=#99FFFF;labelBorderColor=#99FFFF;fontSize=7;" edge="1" parent="6KCu21m0NfsH39WnxG2K-67" source="6KCu21m0NfsH39WnxG2K-94" target="6KCu21m0NfsH39WnxG2K-71">
          <mxGeometry relative="1" as="geometry" />
        </mxCell>
        <mxCell id="6KCu21m0NfsH39WnxG2K-94" value="&lt;span style=&quot;background-color: rgb(255, 255, 255);&quot;&gt;if timestamp &amp;gt; max timestamp&lt;/span&gt;" style="strokeWidth=2;html=1;shape=mxgraph.flowchart.decision;whiteSpace=wrap;labelBackgroundColor=none;labelBorderColor=none;fontSize=7;" vertex="1" parent="6KCu21m0NfsH39WnxG2K-67">
          <mxGeometry x="2.5" y="80" width="125" height="50" as="geometry" />
        </mxCell>
        <mxCell id="6KCu21m0NfsH39WnxG2K-97" value="Y" style="text;html=1;strokeColor=none;fillColor=none;align=center;verticalAlign=middle;whiteSpace=wrap;rounded=0;labelBackgroundColor=#FFFFFF;labelBorderColor=none;fontSize=7;" vertex="1" parent="6KCu21m0NfsH39WnxG2K-67">
          <mxGeometry x="69" y="136" width="27" height="10" as="geometry" />
        </mxCell>
        <mxCell id="6KCu21m0NfsH39WnxG2K-11" value="Wordpress" style="swimlane;swimlaneFillColor=default;" vertex="1" parent="1">
          <mxGeometry x="270" y="50" width="300" height="1100" as="geometry" />
        </mxCell>
        <mxCell id="6KCu21m0NfsH39WnxG2K-36" value="WP cron" style="swimlane;swimlaneFillColor=#FCFCFC;" vertex="1" parent="6KCu21m0NfsH39WnxG2K-11">
          <mxGeometry x="65" y="40" width="205" height="330" as="geometry" />
        </mxCell>
        <mxCell id="6KCu21m0NfsH39WnxG2K-41" value="WP_PHP_sync_google_sheet" style="swimlane;fontSize=7;" vertex="1" parent="6KCu21m0NfsH39WnxG2K-36">
          <mxGeometry x="10" y="40" width="180" height="280" as="geometry" />
        </mxCell>
        <mxCell id="6KCu21m0NfsH39WnxG2K-140" style="edgeStyle=orthogonalEdgeStyle;rounded=0;orthogonalLoop=1;jettySize=auto;html=1;exitX=0.5;exitY=1;exitDx=0;exitDy=0;entryX=0.5;entryY=0;entryDx=0;entryDy=0;dashed=1;labelBackgroundColor=#99FFFF;labelBorderColor=#99FFFF;fontSize=7;" edge="1" parent="6KCu21m0NfsH39WnxG2K-41" source="6KCu21m0NfsH39WnxG2K-84" target="6KCu21m0NfsH39WnxG2K-117">
          <mxGeometry relative="1" as="geometry" />
        </mxCell>
        <mxCell id="6KCu21m0NfsH39WnxG2K-84" value="&lt;span style=&quot;font-size: 7px;&quot;&gt;mysqli_query&lt;/span&gt;" style="rounded=0;whiteSpace=wrap;html=1;fontSize=7;" vertex="1" parent="6KCu21m0NfsH39WnxG2K-41">
          <mxGeometry x="34" y="30" width="90" height="30" as="geometry" />
        </mxCell>
        <mxCell id="6KCu21m0NfsH39WnxG2K-144" style="edgeStyle=orthogonalEdgeStyle;rounded=0;orthogonalLoop=1;jettySize=auto;html=1;exitX=0.5;exitY=1;exitDx=0;exitDy=0;entryX=0.5;entryY=0;entryDx=0;entryDy=0;dashed=1;labelBackgroundColor=#99FFFF;labelBorderColor=#99FFFF;fontSize=7;" edge="1" parent="6KCu21m0NfsH39WnxG2K-41" source="6KCu21m0NfsH39WnxG2K-85" target="6KCu21m0NfsH39WnxG2K-106">
          <mxGeometry relative="1" as="geometry" />
        </mxCell>
        <mxCell id="6KCu21m0NfsH39WnxG2K-85" value="&lt;span style=&quot;font-size: 7px;&quot;&gt;file_get_contents&lt;/span&gt;" style="rounded=0;whiteSpace=wrap;html=1;fontSize=7;" vertex="1" parent="6KCu21m0NfsH39WnxG2K-41">
          <mxGeometry x="24" y="140" width="110" height="30" as="geometry" />
        </mxCell>
        <mxCell id="6KCu21m0NfsH39WnxG2K-138" style="edgeStyle=orthogonalEdgeStyle;rounded=0;orthogonalLoop=1;jettySize=auto;html=1;exitX=0.5;exitY=1;exitDx=0;exitDy=0;entryX=0.5;entryY=0;entryDx=0;entryDy=0;dashed=1;labelBackgroundColor=#99FFFF;labelBorderColor=#99FFFF;fontSize=7;" edge="1" parent="6KCu21m0NfsH39WnxG2K-41" source="6KCu21m0NfsH39WnxG2K-106" target="6KCu21m0NfsH39WnxG2K-108">
          <mxGeometry relative="1" as="geometry" />
        </mxCell>
        <mxCell id="6KCu21m0NfsH39WnxG2K-106" value="json_decode" style="rounded=0;whiteSpace=wrap;html=1;labelBackgroundColor=#FFFFFF;labelBorderColor=none;fontSize=7;" vertex="1" parent="6KCu21m0NfsH39WnxG2K-41">
          <mxGeometry x="39" y="184" width="80" height="20" as="geometry" />
        </mxCell>
        <mxCell id="6KCu21m0NfsH39WnxG2K-108" value="mysqli_query" style="rounded=0;whiteSpace=wrap;html=1;labelBackgroundColor=#FFFFFF;labelBorderColor=none;fontSize=7;" vertex="1" parent="6KCu21m0NfsH39WnxG2K-41">
          <mxGeometry x="39" y="221" width="80" height="40" as="geometry" />
        </mxCell>
        <mxCell id="6KCu21m0NfsH39WnxG2K-123" style="edgeStyle=orthogonalEdgeStyle;rounded=0;orthogonalLoop=1;jettySize=auto;html=1;exitX=0.5;exitY=1;exitDx=0;exitDy=0;entryX=0.5;entryY=0;entryDx=0;entryDy=0;dashed=1;labelBackgroundColor=#99FFFF;labelBorderColor=#99FFFF;fontSize=7;" edge="1" parent="6KCu21m0NfsH39WnxG2K-41" source="6KCu21m0NfsH39WnxG2K-117" target="6KCu21m0NfsH39WnxG2K-85">
          <mxGeometry relative="1" as="geometry" />
        </mxCell>
        <mxCell id="6KCu21m0NfsH39WnxG2K-125" style="edgeStyle=orthogonalEdgeStyle;rounded=0;orthogonalLoop=1;jettySize=auto;html=1;exitX=1;exitY=1;exitDx=0;exitDy=0;entryX=0.833;entryY=0;entryDx=0;entryDy=0;entryPerimeter=0;dashed=1;labelBackgroundColor=#99FFFF;labelBorderColor=#99FFFF;fontSize=7;" edge="1" parent="6KCu21m0NfsH39WnxG2K-41" source="6KCu21m0NfsH39WnxG2K-117" target="6KCu21m0NfsH39WnxG2K-85">
          <mxGeometry relative="1" as="geometry" />
        </mxCell>
        <mxCell id="6KCu21m0NfsH39WnxG2K-117" value="&lt;span style=&quot;background-color: rgb(248, 249, 250);&quot;&gt;if max timestamp != NULL&lt;/span&gt;" style="rhombus;whiteSpace=wrap;html=1;labelBackgroundColor=#FFFFFF;labelBorderColor=none;fontSize=7;" vertex="1" parent="6KCu21m0NfsH39WnxG2K-41">
          <mxGeometry x="6" y="80" width="146" height="30" as="geometry" />
        </mxCell>
        <mxCell id="6KCu21m0NfsH39WnxG2K-124" value="Y" style="text;html=1;strokeColor=none;fillColor=none;align=center;verticalAlign=middle;whiteSpace=wrap;rounded=0;labelBackgroundColor=#FFFFFF;labelBorderColor=none;fontSize=7;" vertex="1" parent="6KCu21m0NfsH39WnxG2K-41">
          <mxGeometry x="50" y="120" width="37" height="10" as="geometry" />
        </mxCell>
        <mxCell id="6KCu21m0NfsH39WnxG2K-127" value="max timestamp=0" style="text;html=1;strokeColor=none;fillColor=none;align=center;verticalAlign=middle;whiteSpace=wrap;rounded=0;labelBackgroundColor=#FFFFFF;labelBorderColor=none;fontSize=7;" vertex="1" parent="6KCu21m0NfsH39WnxG2K-41">
          <mxGeometry x="144" y="120" width="30" as="geometry" />
        </mxCell>
        <mxCell id="6KCu21m0NfsH39WnxG2K-137" value="insert data load" style="text;html=1;strokeColor=none;fillColor=none;align=center;verticalAlign=middle;whiteSpace=wrap;rounded=0;labelBackgroundColor=#FFFFFF;labelBorderColor=none;fontSize=7;" vertex="1" parent="6KCu21m0NfsH39WnxG2K-41">
          <mxGeometry x="120" y="245" width="60" height="30" as="geometry" />
        </mxCell>
        <mxCell id="6KCu21m0NfsH39WnxG2K-93" value="send max timestamp" style="text;html=1;strokeColor=none;fillColor=none;align=center;verticalAlign=middle;whiteSpace=wrap;rounded=0;labelBackgroundColor=none;labelBorderColor=none;fontSize=7;" vertex="1" parent="6KCu21m0NfsH39WnxG2K-11">
          <mxGeometry x="5" y="190" width="60" height="30" as="geometry" />
        </mxCell>
        <mxCell id="6KCu21m0NfsH39WnxG2K-105" value="get JSON dataload" style="text;html=1;strokeColor=none;fillColor=none;align=center;verticalAlign=middle;whiteSpace=wrap;rounded=0;labelBackgroundColor=none;labelBorderColor=none;fontSize=7;" vertex="1" parent="6KCu21m0NfsH39WnxG2K-11">
          <mxGeometry x="5" y="240" width="60" height="30" as="geometry" />
        </mxCell>
        <mxCell id="6KCu21m0NfsH39WnxG2K-116" value="get max timestamp" style="text;html=1;strokeColor=none;fillColor=none;align=center;verticalAlign=middle;whiteSpace=wrap;rounded=0;labelBackgroundColor=#FFFFFF;labelBorderColor=none;fontSize=7;" vertex="1" parent="6KCu21m0NfsH39WnxG2K-11">
          <mxGeometry x="235" y="135" width="60" height="30" as="geometry" />
        </mxCell>
        <mxCell id="6KCu21m0NfsH39WnxG2K-92" value="" style="endArrow=classic;html=1;rounded=0;dashed=1;labelBackgroundColor=#99FFFF;labelBorderColor=#99FFFF;fontSize=7;entryX=0.002;entryY=0.662;entryDx=0;entryDy=0;entryPerimeter=0;" edge="1" parent="6KCu21m0NfsH39WnxG2K-11" target="6KCu21m0NfsH39WnxG2K-85">
          <mxGeometry width="50" height="50" relative="1" as="geometry">
            <mxPoint x="-10" y="400" as="sourcePoint" />
            <mxPoint x="98" y="280" as="targetPoint" />
            <Array as="points">
              <mxPoint x="-10" y="240" />
            </Array>
          </mxGeometry>
        </mxCell>
        <mxCell id="6KCu21m0NfsH39WnxG2K-145" value="善行點滴主畫面" style="swimlane;labelBackgroundColor=#FFFFFF;labelBorderColor=none;fontSize=12;swimlaneFillColor=#F5F5F5;" vertex="1" parent="6KCu21m0NfsH39WnxG2K-11">
          <mxGeometry x="10" y="430" width="280" height="380" as="geometry" />
        </mxCell>
        <mxCell id="6KCu21m0NfsH39WnxG2K-146" value="xyz-ips snippet=&quot;php-show-db&quot;" style="swimlane;labelBackgroundColor=#FFFFFF;labelBorderColor=none;fontSize=8;" vertex="1" parent="6KCu21m0NfsH39WnxG2K-145">
          <mxGeometry x="10" y="40" width="260" height="330" as="geometry" />
        </mxCell>
        <mxCell id="6KCu21m0NfsH39WnxG2K-196" value="" style="edgeStyle=orthogonalEdgeStyle;rounded=0;orthogonalLoop=1;jettySize=auto;html=1;dashed=1;labelBackgroundColor=#99FFFF;labelBorderColor=#99FFFF;fontSize=8;" edge="1" parent="6KCu21m0NfsH39WnxG2K-146" source="6KCu21m0NfsH39WnxG2K-148">
          <mxGeometry relative="1" as="geometry">
            <mxPoint x="122" y="80" as="targetPoint" />
          </mxGeometry>
        </mxCell>
        <mxCell id="6KCu21m0NfsH39WnxG2K-148" value="&lt;span style=&quot;font-size: 7px;&quot;&gt;mysqli_query&lt;/span&gt;" style="rounded=0;whiteSpace=wrap;html=1;fontSize=7;" vertex="1" parent="6KCu21m0NfsH39WnxG2K-146">
          <mxGeometry x="77" y="30" width="90" height="30" as="geometry" />
        </mxCell>
        <mxCell id="6KCu21m0NfsH39WnxG2K-161" value="column0" style="swimlane;labelBackgroundColor=#FFFFFF;labelBorderColor=none;fontSize=8;" vertex="1" parent="6KCu21m0NfsH39WnxG2K-146">
          <mxGeometry x="54" y="120" width="40" height="60" as="geometry" />
        </mxCell>
        <mxCell id="6KCu21m0NfsH39WnxG2K-165" value="columns" style="swimlane;labelBackgroundColor=#FFFFFF;labelBorderColor=none;fontSize=8;" vertex="1" parent="6KCu21m0NfsH39WnxG2K-146">
          <mxGeometry x="54" y="90" width="160" height="90" as="geometry" />
        </mxCell>
        <mxCell id="6KCu21m0NfsH39WnxG2K-174" value="group" style="swimlane;horizontal=0;labelBackgroundColor=#FFFFFF;labelBorderColor=none;fontSize=8;" vertex="1" parent="6KCu21m0NfsH39WnxG2K-146">
          <mxGeometry x="24" y="80" width="200" height="240" as="geometry" />
        </mxCell>
        <mxCell id="6KCu21m0NfsH39WnxG2K-175" value="。。。" style="text;html=1;strokeColor=none;fillColor=none;align=center;verticalAlign=middle;whiteSpace=wrap;rounded=0;labelBackgroundColor=#FFFFFF;labelBorderColor=none;fontSize=8;" vertex="1" parent="6KCu21m0NfsH39WnxG2K-174">
          <mxGeometry x="87.5" y="210" width="45" height="30" as="geometry" />
        </mxCell>
        <mxCell id="6KCu21m0NfsH39WnxG2K-162" value="column1" style="swimlane;labelBackgroundColor=#FFFFFF;labelBorderColor=none;fontSize=8;" vertex="1" parent="6KCu21m0NfsH39WnxG2K-174">
          <mxGeometry x="70" y="40" width="109" height="60" as="geometry" />
        </mxCell>
        <mxCell id="6KCu21m0NfsH39WnxG2K-191" value="" style="shape=note;whiteSpace=wrap;html=1;backgroundOutline=1;darkOpacity=0.05;labelBackgroundColor=#FFFFFF;labelBorderColor=none;fontSize=8;size=6;" vertex="1" parent="6KCu21m0NfsH39WnxG2K-162">
          <mxGeometry x="-31" y="30" width="20" height="20" as="geometry" />
        </mxCell>
        <mxCell id="6KCu21m0NfsH39WnxG2K-192" value="" style="shape=note;whiteSpace=wrap;html=1;backgroundOutline=1;darkOpacity=0.05;labelBackgroundColor=#FFFFFF;labelBorderColor=none;fontSize=8;size=6;" vertex="1" parent="6KCu21m0NfsH39WnxG2K-162">
          <mxGeometry x="9" y="30" width="20" height="20" as="geometry" />
        </mxCell>
        <mxCell id="6KCu21m0NfsH39WnxG2K-193" value="" style="shape=note;whiteSpace=wrap;html=1;backgroundOutline=1;darkOpacity=0.05;labelBackgroundColor=#FFFFFF;labelBorderColor=none;fontSize=8;size=6;" vertex="1" parent="6KCu21m0NfsH39WnxG2K-162">
          <mxGeometry x="49" y="30" width="20" height="20" as="geometry" />
        </mxCell>
        <mxCell id="6KCu21m0NfsH39WnxG2K-194" value="" style="shape=note;whiteSpace=wrap;html=1;backgroundOutline=1;darkOpacity=0.05;labelBackgroundColor=#FFFFFF;labelBorderColor=none;fontSize=8;size=6;" vertex="1" parent="6KCu21m0NfsH39WnxG2K-162">
          <mxGeometry x="89" y="30" width="20" height="20" as="geometry" />
        </mxCell>
        <mxCell id="6KCu21m0NfsH39WnxG2K-163" value="column2" style="swimlane;labelBackgroundColor=#FFFFFF;labelBorderColor=none;fontSize=8;" vertex="1" parent="6KCu21m0NfsH39WnxG2K-174">
          <mxGeometry x="110" y="40" width="40" height="60" as="geometry" />
        </mxCell>
        <mxCell id="6KCu21m0NfsH39WnxG2K-164" value="column3" style="swimlane;labelBackgroundColor=#FFFFFF;labelBorderColor=none;fontSize=8;" vertex="1" parent="6KCu21m0NfsH39WnxG2K-174">
          <mxGeometry x="150" y="40" width="40" height="60" as="geometry" />
        </mxCell>
        <mxCell id="6KCu21m0NfsH39WnxG2K-176" value="column0" style="swimlane;labelBackgroundColor=#FFFFFF;labelBorderColor=none;fontSize=8;" vertex="1" parent="6KCu21m0NfsH39WnxG2K-174">
          <mxGeometry x="30" y="150" width="40" height="60" as="geometry" />
        </mxCell>
        <mxCell id="6KCu21m0NfsH39WnxG2K-177" value="columns" style="swimlane;labelBackgroundColor=#FFFFFF;labelBorderColor=none;fontSize=8;" vertex="1" parent="6KCu21m0NfsH39WnxG2K-174">
          <mxGeometry x="30" y="120" width="160" height="90" as="geometry" />
        </mxCell>
        <mxCell id="6KCu21m0NfsH39WnxG2K-190" value="" style="shape=note;whiteSpace=wrap;html=1;backgroundOutline=1;darkOpacity=0.05;labelBackgroundColor=#FFFFFF;labelBorderColor=none;fontSize=8;size=6;" vertex="1" parent="6KCu21m0NfsH39WnxG2K-177">
          <mxGeometry x="10" y="60" width="20" height="20" as="geometry" />
        </mxCell>
        <mxCell id="6KCu21m0NfsH39WnxG2K-178" value="column1" style="swimlane;labelBackgroundColor=#FFFFFF;labelBorderColor=none;fontSize=8;" vertex="1" parent="6KCu21m0NfsH39WnxG2K-174">
          <mxGeometry x="70" y="150" width="40" height="60" as="geometry" />
        </mxCell>
        <mxCell id="6KCu21m0NfsH39WnxG2K-189" value="" style="shape=note;whiteSpace=wrap;html=1;backgroundOutline=1;darkOpacity=0.05;labelBackgroundColor=#FFFFFF;labelBorderColor=none;fontSize=8;size=6;" vertex="1" parent="6KCu21m0NfsH39WnxG2K-178">
          <mxGeometry x="10" y="30" width="20" height="20" as="geometry" />
        </mxCell>
        <mxCell id="6KCu21m0NfsH39WnxG2K-179" value="column2" style="swimlane;labelBackgroundColor=#FFFFFF;labelBorderColor=none;fontSize=8;" vertex="1" parent="6KCu21m0NfsH39WnxG2K-174">
          <mxGeometry x="110" y="150" width="40" height="60" as="geometry" />
        </mxCell>
        <mxCell id="6KCu21m0NfsH39WnxG2K-188" value="" style="shape=note;whiteSpace=wrap;html=1;backgroundOutline=1;darkOpacity=0.05;labelBackgroundColor=#FFFFFF;labelBorderColor=none;fontSize=8;size=6;" vertex="1" parent="6KCu21m0NfsH39WnxG2K-179">
          <mxGeometry x="10" y="30" width="20" height="20" as="geometry" />
        </mxCell>
        <mxCell id="6KCu21m0NfsH39WnxG2K-180" value="column3" style="swimlane;labelBackgroundColor=#FFFFFF;labelBorderColor=none;fontSize=8;" vertex="1" parent="6KCu21m0NfsH39WnxG2K-174">
          <mxGeometry x="150" y="150" width="40" height="60" as="geometry" />
        </mxCell>
        <mxCell id="6KCu21m0NfsH39WnxG2K-182" value="" style="shape=note;whiteSpace=wrap;html=1;backgroundOutline=1;darkOpacity=0.05;labelBackgroundColor=#FFFFFF;labelBorderColor=none;fontSize=8;size=6;" vertex="1" parent="6KCu21m0NfsH39WnxG2K-146">
          <mxGeometry x="184" y="260" width="20" height="20" as="geometry" />
        </mxCell>
        <mxCell id="6KCu21m0NfsH39WnxG2K-197" value="display web page" style="text;html=1;strokeColor=none;fillColor=none;align=center;verticalAlign=middle;whiteSpace=wrap;rounded=0;labelBackgroundColor=#FFFFFF;labelBorderColor=none;fontSize=8;" vertex="1" parent="6KCu21m0NfsH39WnxG2K-146">
          <mxGeometry x="14" y="64.5" width="110" height="10" as="geometry" />
        </mxCell>
        <mxCell id="6KCu21m0NfsH39WnxG2K-198" value="new page" style="swimlane;labelBackgroundColor=#FFFFFF;labelBorderColor=none;fontSize=8;swimlaneFillColor=#FCFCFC;" vertex="1" parent="6KCu21m0NfsH39WnxG2K-11">
          <mxGeometry x="50" y="850" width="190" height="220" as="geometry" />
        </mxCell>
        <mxCell id="6KCu21m0NfsH39WnxG2K-214" style="edgeStyle=orthogonalEdgeStyle;rounded=0;orthogonalLoop=1;jettySize=auto;html=1;exitX=0.5;exitY=1;exitDx=0;exitDy=0;entryX=0.5;entryY=0;entryDx=0;entryDy=0;dashed=1;labelBackgroundColor=#99FFFF;labelBorderColor=#99FFFF;fontSize=8;" edge="1" parent="6KCu21m0NfsH39WnxG2K-198" source="6KCu21m0NfsH39WnxG2K-204" target="6KCu21m0NfsH39WnxG2K-209">
          <mxGeometry relative="1" as="geometry" />
        </mxCell>
        <mxCell id="6KCu21m0NfsH39WnxG2K-204" value="&lt;span style=&quot;font-size: 7px;&quot;&gt;mysqli_query&lt;/span&gt;" style="rounded=0;whiteSpace=wrap;html=1;fontSize=7;" vertex="1" parent="6KCu21m0NfsH39WnxG2K-198">
          <mxGeometry x="49" y="30" width="90" height="30" as="geometry" />
        </mxCell>
        <mxCell id="6KCu21m0NfsH39WnxG2K-209" value="body" style="swimlane;fontStyle=0;childLayout=stackLayout;horizontal=1;startSize=20;horizontalStack=0;resizeParent=1;resizeParentMax=0;resizeLast=0;collapsible=1;marginBottom=0;labelBackgroundColor=#FFFFFF;labelBorderColor=none;fontSize=8;" vertex="1" parent="6KCu21m0NfsH39WnxG2K-198">
          <mxGeometry x="24" y="90" width="140" height="110" as="geometry" />
        </mxCell>
        <mxCell id="6KCu21m0NfsH39WnxG2K-210" value="show image" style="text;strokeColor=none;fillColor=none;align=left;verticalAlign=middle;spacingLeft=4;spacingRight=4;overflow=hidden;points=[[0,0.5],[1,0.5]];portConstraint=eastwest;rotatable=0;labelBackgroundColor=#FFFFFF;labelBorderColor=none;fontSize=8;" vertex="1" parent="6KCu21m0NfsH39WnxG2K-209">
          <mxGeometry y="20" width="140" height="30" as="geometry" />
        </mxCell>
        <mxCell id="6KCu21m0NfsH39WnxG2K-211" value="show short description" style="text;strokeColor=none;fillColor=none;align=left;verticalAlign=middle;spacingLeft=4;spacingRight=4;overflow=hidden;points=[[0,0.5],[1,0.5]];portConstraint=eastwest;rotatable=0;labelBackgroundColor=#FFFFFF;labelBorderColor=none;fontSize=8;" vertex="1" parent="6KCu21m0NfsH39WnxG2K-209">
          <mxGeometry y="50" width="140" height="30" as="geometry" />
        </mxCell>
        <mxCell id="6KCu21m0NfsH39WnxG2K-212" value="show author, time, content" style="text;strokeColor=none;fillColor=none;align=left;verticalAlign=middle;spacingLeft=4;spacingRight=4;overflow=hidden;points=[[0,0.5],[1,0.5]];portConstraint=eastwest;rotatable=0;labelBackgroundColor=#FFFFFF;labelBorderColor=none;fontSize=8;" vertex="1" parent="6KCu21m0NfsH39WnxG2K-209">
          <mxGeometry y="80" width="140" height="30" as="geometry" />
        </mxCell>
        <mxCell id="6KCu21m0NfsH39WnxG2K-215" value="&lt;span style=&quot;color: rgb(0, 0, 0); font-family: Helvetica; font-size: 8px; font-style: normal; font-variant-ligatures: normal; font-variant-caps: normal; font-weight: 400; letter-spacing: normal; orphans: 2; text-align: center; text-indent: 0px; text-transform: none; widows: 2; word-spacing: 0px; -webkit-text-stroke-width: 0px; background-color: rgb(255, 255, 255); text-decoration-thickness: initial; text-decoration-style: initial; text-decoration-color: initial; float: none; display: inline !important;&quot;&gt;display web page&lt;/span&gt;" style="text;whiteSpace=wrap;html=1;fontSize=8;" vertex="1" parent="6KCu21m0NfsH39WnxG2K-198">
          <mxGeometry x="-1" y="57" width="100" height="20" as="geometry" />
        </mxCell>
        <mxCell id="6KCu21m0NfsH39WnxG2K-200" value="onClick&lt;br&gt;send title" style="text;html=1;strokeColor=none;fillColor=none;align=center;verticalAlign=middle;whiteSpace=wrap;rounded=0;labelBackgroundColor=#FFFFFF;labelBorderColor=none;fontSize=8;" vertex="1" parent="6KCu21m0NfsH39WnxG2K-11">
          <mxGeometry x="90" y="810" width="60" height="30" as="geometry" />
        </mxCell>
        <mxCell id="6KCu21m0NfsH39WnxG2K-207" value="&lt;span style=&quot;color: rgb(0, 0, 0); font-family: Helvetica; font-size: 8px; font-style: normal; font-variant-ligatures: normal; font-variant-caps: normal; font-weight: 400; letter-spacing: normal; orphans: 2; text-align: center; text-indent: 0px; text-transform: none; widows: 2; word-spacing: 0px; -webkit-text-stroke-width: 0px; background-color: rgb(248, 249, 250); text-decoration-thickness: initial; text-decoration-style: initial; text-decoration-color: initial; float: none; display: inline !important;&quot;&gt;send title&lt;/span&gt;" style="text;whiteSpace=wrap;html=1;fontSize=8;" vertex="1" parent="6KCu21m0NfsH39WnxG2K-11">
          <mxGeometry x="245" y="864" width="70" height="20" as="geometry" />
        </mxCell>
        <mxCell id="6KCu21m0NfsH39WnxG2K-208" value="get data" style="text;html=1;strokeColor=none;fillColor=none;align=center;verticalAlign=middle;whiteSpace=wrap;rounded=0;labelBackgroundColor=#FFFFFF;labelBorderColor=none;fontSize=8;" vertex="1" parent="6KCu21m0NfsH39WnxG2K-11">
          <mxGeometry x="245" y="910" width="50" height="20" as="geometry" />
        </mxCell>
        <mxCell id="6KCu21m0NfsH39WnxG2K-12" value="MYSQL" style="swimlane;" vertex="1" parent="1">
          <mxGeometry x="570" y="50" width="100" height="1100" as="geometry" />
        </mxCell>
        <mxCell id="6KCu21m0NfsH39WnxG2K-107" value="" style="shape=datastore;whiteSpace=wrap;html=1;labelBackgroundColor=#FFFFFF;labelBorderColor=none;fontSize=7;" vertex="1" parent="6KCu21m0NfsH39WnxG2K-12">
          <mxGeometry x="20" y="95" width="60" height="60" as="geometry" />
        </mxCell>
        <mxCell id="6KCu21m0NfsH39WnxG2K-132" value="" style="shape=datastore;whiteSpace=wrap;html=1;labelBackgroundColor=#FFFFFF;labelBorderColor=none;fontSize=7;" vertex="1" parent="6KCu21m0NfsH39WnxG2K-12">
          <mxGeometry x="20" y="291" width="60" height="60" as="geometry" />
        </mxCell>
        <mxCell id="6KCu21m0NfsH39WnxG2K-147" value="" style="shape=datastore;whiteSpace=wrap;html=1;labelBackgroundColor=#FFFFFF;labelBorderColor=none;fontSize=8;" vertex="1" parent="6KCu21m0NfsH39WnxG2K-12">
          <mxGeometry x="20" y="490" width="60" height="60" as="geometry" />
        </mxCell>
        <mxCell id="6KCu21m0NfsH39WnxG2K-202" value="" style="shape=datastore;whiteSpace=wrap;html=1;labelBackgroundColor=#FFFFFF;labelBorderColor=none;fontSize=8;" vertex="1" parent="6KCu21m0NfsH39WnxG2K-12">
          <mxGeometry x="20" y="870" width="60" height="60" as="geometry" />
        </mxCell>
        <mxCell id="6KCu21m0NfsH39WnxG2K-16" value="" style="endArrow=classic;html=1;rounded=0;" edge="1" parent="1">
          <mxGeometry width="50" height="50" relative="1" as="geometry">
            <mxPoint x="170" y="160" as="sourcePoint" />
            <mxPoint x="170" y="200" as="targetPoint" />
          </mxGeometry>
        </mxCell>
        <mxCell id="6KCu21m0NfsH39WnxG2K-60" style="edgeStyle=orthogonalEdgeStyle;rounded=0;orthogonalLoop=1;jettySize=auto;html=1;dashed=1;fontSize=7;" edge="1" parent="1">
          <mxGeometry relative="1" as="geometry">
            <mxPoint x="370" y="280" as="sourcePoint" />
            <mxPoint x="240" y="450" as="targetPoint" />
            <Array as="points">
              <mxPoint x="370" y="280" />
              <mxPoint x="240" y="280" />
            </Array>
          </mxGeometry>
        </mxCell>
        <mxCell id="6KCu21m0NfsH39WnxG2K-90" value="" style="endArrow=classic;html=1;rounded=0;dashed=1;labelBackgroundColor=#99FFFF;labelBorderColor=#99FFFF;fontSize=7;" edge="1" parent="1">
          <mxGeometry width="50" height="50" relative="1" as="geometry">
            <mxPoint x="170" y="513" as="sourcePoint" />
            <mxPoint x="170" y="531" as="targetPoint" />
          </mxGeometry>
        </mxCell>
        <mxCell id="6KCu21m0NfsH39WnxG2K-104" value="" style="endArrow=classic;html=1;rounded=0;dashed=1;labelBackgroundColor=#99FFFF;labelBorderColor=#99FFFF;fontSize=7;exitX=0.5;exitY=1;exitDx=0;exitDy=0;" edge="1" parent="1" source="6KCu21m0NfsH39WnxG2K-72">
          <mxGeometry width="50" height="50" relative="1" as="geometry">
            <mxPoint x="330" y="680" as="sourcePoint" />
            <mxPoint x="165" y="732" as="targetPoint" />
          </mxGeometry>
        </mxCell>
        <mxCell id="6KCu21m0NfsH39WnxG2K-114" value="" style="edgeStyle=orthogonalEdgeStyle;rounded=0;orthogonalLoop=1;jettySize=auto;html=1;dashed=1;labelBackgroundColor=#99FFFF;labelBorderColor=#99FFFF;fontSize=7;entryX=0;entryY=0.5;entryDx=0;entryDy=0;" edge="1" parent="1" source="6KCu21m0NfsH39WnxG2K-84" target="6KCu21m0NfsH39WnxG2K-107">
          <mxGeometry relative="1" as="geometry">
            <mxPoint x="544" y="175" as="targetPoint" />
            <Array as="points">
              <mxPoint x="580" y="175" />
              <mxPoint x="580" y="175" />
            </Array>
          </mxGeometry>
        </mxCell>
        <mxCell id="6KCu21m0NfsH39WnxG2K-115" style="edgeStyle=orthogonalEdgeStyle;rounded=0;orthogonalLoop=1;jettySize=auto;html=1;exitX=0;exitY=0.7;exitDx=0;exitDy=0;dashed=1;labelBackgroundColor=#99FFFF;labelBorderColor=#99FFFF;fontSize=7;" edge="1" parent="1" source="6KCu21m0NfsH39WnxG2K-107">
          <mxGeometry relative="1" as="geometry">
            <mxPoint x="460" y="180" as="targetPoint" />
            <Array as="points">
              <mxPoint x="590" y="180" />
            </Array>
          </mxGeometry>
        </mxCell>
        <mxCell id="6KCu21m0NfsH39WnxG2K-129" value="N" style="text;html=1;strokeColor=none;fillColor=none;align=center;verticalAlign=middle;whiteSpace=wrap;rounded=0;labelBackgroundColor=#FFFFFF;labelBorderColor=none;fontSize=7;" vertex="1" parent="1">
          <mxGeometry x="459" y="230" width="30" height="20" as="geometry" />
        </mxCell>
        <mxCell id="6KCu21m0NfsH39WnxG2K-143" style="edgeStyle=orthogonalEdgeStyle;rounded=0;orthogonalLoop=1;jettySize=auto;html=1;exitX=0;exitY=0;exitDx=0;exitDy=0;entryX=0;entryY=0.5;entryDx=0;entryDy=0;dashed=1;labelBackgroundColor=#99FFFF;labelBorderColor=#99FFFF;fontSize=7;" edge="1" parent="1" source="6KCu21m0NfsH39WnxG2K-137" target="6KCu21m0NfsH39WnxG2K-132">
          <mxGeometry relative="1" as="geometry">
            <Array as="points">
              <mxPoint x="465" y="371" />
            </Array>
          </mxGeometry>
        </mxCell>
        <mxCell id="6KCu21m0NfsH39WnxG2K-149" style="edgeStyle=orthogonalEdgeStyle;rounded=0;orthogonalLoop=1;jettySize=auto;html=1;exitX=1;exitY=0.25;exitDx=0;exitDy=0;entryX=0;entryY=0.3;entryDx=0;entryDy=0;dashed=1;labelBackgroundColor=#99FFFF;labelBorderColor=#99FFFF;fontSize=8;startArrow=none;" edge="1" parent="1" source="6KCu21m0NfsH39WnxG2K-151" target="6KCu21m0NfsH39WnxG2K-147">
          <mxGeometry relative="1" as="geometry" />
        </mxCell>
        <mxCell id="6KCu21m0NfsH39WnxG2K-150" style="edgeStyle=orthogonalEdgeStyle;rounded=0;orthogonalLoop=1;jettySize=auto;html=1;exitX=0;exitY=0.5;exitDx=0;exitDy=0;entryX=0.999;entryY=0.662;entryDx=0;entryDy=0;entryPerimeter=0;dashed=1;labelBackgroundColor=#99FFFF;labelBorderColor=#99FFFF;fontSize=8;" edge="1" parent="1" source="6KCu21m0NfsH39WnxG2K-147" target="6KCu21m0NfsH39WnxG2K-148">
          <mxGeometry relative="1" as="geometry" />
        </mxCell>
        <mxCell id="6KCu21m0NfsH39WnxG2K-151" value="get all data" style="text;html=1;strokeColor=none;fillColor=none;align=center;verticalAlign=middle;whiteSpace=wrap;rounded=0;labelBackgroundColor=#FFFFFF;labelBorderColor=none;fontSize=8;" vertex="1" parent="1">
          <mxGeometry x="500" y="550" width="40" height="30" as="geometry" />
        </mxCell>
        <mxCell id="6KCu21m0NfsH39WnxG2K-195" value="" style="edgeStyle=orthogonalEdgeStyle;rounded=0;orthogonalLoop=1;jettySize=auto;html=1;exitX=1;exitY=0.25;exitDx=0;exitDy=0;entryX=0;entryY=0.3;entryDx=0;entryDy=0;dashed=1;labelBackgroundColor=#99FFFF;labelBorderColor=#99FFFF;fontSize=8;endArrow=none;" edge="1" parent="1" source="6KCu21m0NfsH39WnxG2K-148" target="6KCu21m0NfsH39WnxG2K-151">
          <mxGeometry relative="1" as="geometry">
            <mxPoint x="457" y="557.5" as="sourcePoint" />
            <mxPoint x="590" y="558" as="targetPoint" />
            <Array as="points">
              <mxPoint x="457" y="560" />
              <mxPoint x="479" y="560" />
            </Array>
          </mxGeometry>
        </mxCell>
        <mxCell id="6KCu21m0NfsH39WnxG2K-199" value="" style="endArrow=classic;html=1;rounded=0;dashed=1;labelBackgroundColor=#99FFFF;labelBorderColor=#99FFFF;fontSize=8;entryX=0.198;entryY=0.004;entryDx=0;entryDy=0;entryPerimeter=0;" edge="1" parent="1" target="6KCu21m0NfsH39WnxG2K-198">
          <mxGeometry width="50" height="50" relative="1" as="geometry">
            <mxPoint x="360" y="800" as="sourcePoint" />
            <mxPoint x="400" y="760" as="targetPoint" />
          </mxGeometry>
        </mxCell>
        <mxCell id="6KCu21m0NfsH39WnxG2K-203" value="" style="endArrow=classic;html=1;rounded=0;dashed=1;labelBackgroundColor=#99FFFF;labelBorderColor=#99FFFF;fontSize=8;entryX=0;entryY=0.3;entryDx=0;entryDy=0;exitX=1;exitY=0.25;exitDx=0;exitDy=0;" edge="1" parent="1" source="6KCu21m0NfsH39WnxG2K-204" target="6KCu21m0NfsH39WnxG2K-202">
          <mxGeometry width="50" height="50" relative="1" as="geometry">
            <mxPoint x="520" y="940" as="sourcePoint" />
            <mxPoint x="350" y="970" as="targetPoint" />
          </mxGeometry>
        </mxCell>
        <mxCell id="6KCu21m0NfsH39WnxG2K-206" style="edgeStyle=orthogonalEdgeStyle;rounded=0;orthogonalLoop=1;jettySize=auto;html=1;exitX=0;exitY=0.5;exitDx=0;exitDy=0;entryX=1;entryY=0.75;entryDx=0;entryDy=0;dashed=1;labelBackgroundColor=#99FFFF;labelBorderColor=#99FFFF;fontSize=8;" edge="1" parent="1" source="6KCu21m0NfsH39WnxG2K-202" target="6KCu21m0NfsH39WnxG2K-204">
          <mxGeometry relative="1" as="geometry">
            <Array as="points">
              <mxPoint x="590" y="953" />
              <mxPoint x="528" y="953" />
            </Array>
          </mxGeometry>
        </mxCell>
      </root>
    </mxGraphModel>
  </diagram>
</mxfile>
